<svg width="25" height="26" viewBox="0 0 25 26" fill="none" xmlns="http://www.w3.org/2000/svg">
<path d="M11.3887 10.8601H13.6109V14.4712H11.3887V10.8601Z" fill="black"/>
<path d="M14.5831 14.749C14.5831 14.9332 14.51 15.1098 14.3797 15.24C14.2495 15.3703 14.0728 15.4434 13.8887 15.4434H11.1109C10.9267 15.4434 10.7501 15.3703 10.6198 15.24C10.4896 15.1098 10.4164 14.9332 10.4164 14.749V13.3601H1.38867V19.6101C1.38867 19.9785 1.535 20.3317 1.79547 20.5922C2.05594 20.8527 2.4092 20.999 2.77756 20.999H22.222C22.5904 20.999 22.9436 20.8527 23.2041 20.5922C23.4646 20.3317 23.6109 19.9785 23.6109 19.6101V13.3601H14.5831V14.749Z" fill="black"/>
<path d="M23.4095 8.76305L20.5692 5.92277C20.4399 5.79448 20.2653 5.72215 20.0831 5.72138H16.6109V4.36721C16.6203 4.00232 16.4857 3.64839 16.2362 3.38197C15.9867 3.11556 15.6423 2.95808 15.2776 2.9436H9.61091C9.43267 2.95062 9.25765 2.99332 9.09622 3.06919C8.93479 3.14506 8.79022 3.25255 8.67107 3.38529C8.55192 3.51804 8.46062 3.67334 8.40258 3.842C8.34453 4.01066 8.32091 4.18926 8.33313 4.36721V5.72138H4.91646C4.82507 5.72085 4.73447 5.73837 4.64986 5.77293C4.56525 5.80749 4.48829 5.85841 4.42341 5.92277L1.59007 8.76305C1.52571 8.82794 1.47479 8.90489 1.44023 8.9895C1.40567 9.07411 1.38816 9.16471 1.38868 9.2561V11.9714H10.4165V10.5825C10.4165 10.3983 10.4896 10.2217 10.6199 10.0914C10.7501 9.96121 10.9267 9.88805 11.1109 9.88805H13.8887C14.0729 9.88805 14.2495 9.96121 14.3797 10.0914C14.51 10.2217 14.5831 10.3983 14.5831 10.5825V11.9714H23.6109V9.24916C23.6101 9.06698 23.5378 8.8924 23.4095 8.76305ZM15.2776 5.72138H9.72202V4.33249H15.2776V5.72138Z" fill="black"/>
</svg>
