<svg width="25" height="25" viewBox="0 0 25 25" fill="none" xmlns="http://www.w3.org/2000/svg">
<path d="M4.68686 17.9894C4.53894 17.9894 4.41533 17.939 4.31602 17.8383C4.21672 17.7376 4.16672 17.6137 4.16602 17.4664C4.16533 17.3192 4.21533 17.1956 4.31602 17.0956C4.41672 16.9956 4.54033 16.946 4.68686 16.9466H20.3119C20.4598 16.9466 20.5834 16.9966 20.6827 17.0966C20.7827 17.1966 20.8327 17.3206 20.8327 17.4685C20.8327 17.6164 20.7827 17.74 20.6827 17.8394C20.5827 17.9387 20.4591 17.9883 20.3119 17.9883L4.68686 17.9894ZM4.68686 13.0206C4.53894 13.0206 4.41533 12.9706 4.31602 12.8706C4.21672 12.7706 4.16672 12.6466 4.16602 12.4987C4.16533 12.3508 4.21533 12.2272 4.31602 12.1279C4.41672 12.0286 4.54033 11.9789 4.68686 11.9789H20.3119C20.4598 11.9789 20.5834 12.0289 20.6827 12.1289C20.782 12.2289 20.832 12.3529 20.8327 12.5008C20.8334 12.6487 20.7834 12.7723 20.6827 12.8716C20.582 12.971 20.4584 13.0206 20.3119 13.0206H4.68686ZM4.68686 8.05186C4.53894 8.05186 4.41533 8.0022 4.31602 7.9029C4.21602 7.8029 4.16602 7.67894 4.16602 7.53102C4.16602 7.38311 4.21602 7.25949 4.31602 7.16019C4.41602 7.06088 4.53963 7.01123 4.68686 7.01123H20.3119C20.4598 7.01123 20.5834 7.06123 20.6827 7.16123C20.782 7.26123 20.832 7.38449 20.8327 7.53102C20.8334 7.67755 20.7834 7.80116 20.6827 7.90186C20.582 8.00255 20.4584 8.05255 20.3119 8.05186H4.68686Z" fill="#E5E5E5"/>
</svg>
