<svg width="16" height="16" viewBox="0 0 16 16" fill="none" xmlns="http://www.w3.org/2000/svg">
<path fill-rule="evenodd" clip-rule="evenodd" d="M9.39958 1.59385C9.88835 1.11485 10.5464 0.848109 11.2308 0.851596C11.9151 0.855083 12.5704 1.12852 13.0543 1.61247C13.5381 2.09642 13.8115 2.75179 13.8148 3.43613C13.8182 4.12048 13.5513 4.77849 13.0722 5.26718L8.00958 10.3298C7.72424 10.6152 7.54958 10.7898 7.35624 10.9412C7.12729 11.1195 6.87961 11.2724 6.61758 11.3972C6.39491 11.5032 6.16091 11.5812 5.77824 11.7085L3.99691 12.3025L3.56891 12.4452C3.38114 12.5079 3.17962 12.5171 2.98693 12.4717C2.79425 12.4262 2.61803 12.328 2.47804 12.188C2.33806 12.0481 2.23985 11.8718 2.19443 11.6792C2.14901 11.4865 2.15818 11.2849 2.22091 11.0972L2.95758 8.88785C3.08491 8.50518 3.16291 8.27118 3.26891 8.04851C3.39392 7.78668 3.54704 7.53922 3.72558 7.31051C3.87691 7.11651 4.05091 6.94185 4.33624 6.65718L9.39958 1.59385ZM3.97291 11.2565L3.41024 10.6925L3.89558 9.23585C4.03691 8.81185 4.09558 8.63918 4.17158 8.47918C4.2658 8.28229 4.3798 8.09785 4.51358 7.92585C4.62291 7.78585 4.75091 7.65651 5.06691 7.33985L8.99424 3.41318C9.19831 3.92301 9.50434 4.3858 9.89358 4.77318C10.281 5.16218 10.7438 5.46798 11.2536 5.67185L7.32624 9.59851C7.00958 9.91518 6.88091 10.0432 6.74091 10.1518C6.56847 10.2861 6.38402 10.4003 6.18758 10.4945C6.02758 10.5705 5.85424 10.6292 5.43024 10.7705L3.97291 11.2565ZM12.0502 4.87451C11.9475 4.85185 11.8462 4.82314 11.7469 4.78851C11.3146 4.63825 10.9223 4.39106 10.6002 4.06585C10.2758 3.74317 10.0287 3.35112 9.87758 2.91918C9.84273 2.81987 9.81379 2.71858 9.79091 2.61585L10.1062 2.30118C10.4074 2.00973 10.8111 1.84832 11.2302 1.85176C11.6492 1.85519 12.0502 2.0232 12.3465 2.31955C12.6429 2.6159 12.8109 3.01685 12.8143 3.43594C12.8178 3.85503 12.6564 4.25868 12.3649 4.55985L12.0502 4.87451ZM2.16624 14.6665C2.16624 14.5339 2.21892 14.4067 2.31269 14.313C2.40646 14.2192 2.53363 14.1665 2.66624 14.1665H13.3329V15.1665H2.66624C2.53363 15.1665 2.40646 15.1138 2.31269 15.0201C2.21892 14.9263 2.16624 14.7991 2.16624 14.6665Z" fill="#848484"/>
</svg>
