<svg width="25" height="26" viewBox="0 0 25 26" fill="none" xmlns="http://www.w3.org/2000/svg">
<path d="M12.4999 11.2629C14.3255 11.2629 15.8054 9.80159 15.8054 7.999C15.8054 6.1964 14.3255 4.73511 12.4999 4.73511C10.6743 4.73511 9.19434 6.1964 9.19434 7.999C9.19434 9.80159 10.6743 11.2629 12.4999 11.2629Z" fill="black"/>
<path d="M7.48591 8.32546H7.81924V8.02685C7.82126 7.15852 8.06624 6.30808 8.52646 5.57173C8.98668 4.83538 9.64377 4.24251 10.4234 3.86019C10.1926 3.32863 9.82213 2.86952 9.35135 2.5316C8.88057 2.19369 8.32705 1.98959 7.74959 1.94099C7.17213 1.89239 6.59229 2.0011 6.07165 2.25558C5.55101 2.51006 5.10902 2.9008 4.79261 3.3863C4.47621 3.8718 4.29721 4.43394 4.27463 5.013C4.25205 5.59206 4.38673 6.16643 4.66436 6.6751C4.94199 7.18376 5.35221 7.60774 5.85145 7.90199C6.35069 8.19624 6.92031 8.34978 7.4998 8.3463L7.48591 8.32546ZM17.1942 7.99907V8.29769H17.5276C18.0993 8.29195 18.659 8.13217 19.1476 7.83518C19.6363 7.53819 20.0358 7.11496 20.3041 6.61005C20.5725 6.10514 20.6998 5.53721 20.6726 4.96606C20.6454 4.3949 20.4648 3.84164 20.1496 3.3645C19.8345 2.88736 19.3966 2.504 18.882 2.25477C18.3674 2.00553 17.7951 1.89964 17.2253 1.94825C16.6556 1.99685 16.1095 2.19814 15.6445 2.53094C15.1795 2.86374 14.8129 3.31574 14.5831 3.83935C15.363 4.22018 16.0208 4.81155 16.4822 5.54663C16.9437 6.28171 17.1903 7.13119 17.1942 7.99907ZM15.479 11.5894C16.8596 11.8631 18.1946 12.3307 19.4442 12.9782C19.6203 13.0748 19.7798 13.1991 19.9165 13.3463H23.6109V10.9713C23.6116 10.8802 23.5874 10.7907 23.5408 10.7123C23.4943 10.634 23.4273 10.5699 23.347 10.5269C21.5471 9.58541 19.5449 9.09677 17.5137 9.10324H17.0554C16.8147 10.0815 16.2612 10.9545 15.479 11.5894ZM4.53452 14.6935C4.53325 14.3438 4.6277 14.0004 4.80764 13.7005C4.98759 13.4005 5.24616 13.1556 5.55535 12.9921C6.80504 12.3446 8.14001 11.877 9.52063 11.6032C8.7422 10.9737 8.18904 10.1087 7.94424 9.13796H7.48591C5.45468 9.1315 3.45247 9.62013 1.65257 10.5616C1.57227 10.6046 1.50525 10.6687 1.45874 10.7471C1.41224 10.8254 1.38801 10.9149 1.38869 11.006V15.4435H4.53452V14.6935ZM14.9026 18.7005H19.0415V19.6727H14.9026V18.7005Z" fill="black"/>
<path d="M22.785 14.9298H18.0141V14.2353C18.0141 14.0511 17.941 13.8745 17.8107 13.7443C17.6805 13.614 17.5039 13.5409 17.3197 13.5409C17.1355 13.5409 16.9589 13.614 16.8286 13.7443C16.6984 13.8745 16.6252 14.0511 16.6252 14.2353V14.9298H15.278V12.9645C14.3645 12.7718 13.4338 12.6718 12.5002 12.6659C10.3085 12.6576 8.14819 13.1869 6.20856 14.2075C6.12218 14.2523 6.04987 14.3202 5.99963 14.4035C5.94938 14.4868 5.92315 14.5824 5.92384 14.6798V18.5756H10.8613V22.8048C10.8613 22.9889 10.9345 23.1656 11.0647 23.2958C11.195 23.426 11.3716 23.4992 11.5558 23.4992H22.785C22.9691 23.4992 23.1458 23.426 23.276 23.2958C23.4062 23.1656 23.4794 22.9889 23.4794 22.8048V15.6242C23.4794 15.44 23.4062 15.2634 23.276 15.1332C23.1458 15.0029 22.9691 14.9298 22.785 14.9298ZM22.0905 22.1242H12.2502V16.3186H16.6252V16.9506C16.6252 17.1348 16.6984 17.3114 16.8286 17.4416C16.9589 17.5719 17.1355 17.645 17.3197 17.645C17.5039 17.645 17.6805 17.5719 17.8107 17.4416C17.941 17.3114 18.0141 17.1348 18.0141 16.9506V16.3186H22.0905V22.1242Z" fill="black"/>
</svg>
