<svg id="Слой_1" data-name="Слой 1" xmlns="http://www.w3.org/2000/svg" viewBox="0 0 267 69"><defs><style>.cls-1{fill:#2b2f71;}.cls-2{fill:#fff;}.cls-3{font-size:60.72px;fill:#1d1d1b;font-family:MyriadPro-Regular, Myriad Pro;letter-spacing:-0.14em;}.cls-4{letter-spacing:-0.07em;}.cls-5{letter-spacing:-0.07em;}</style></defs><path class="cls-1" d="M49.66,5.39H4.72V50.33A11.17,11.17,0,0,0,15.89,61.5H60.83V16.56A11.17,11.17,0,0,0,49.66,5.39Z"/><path class="cls-2" d="M35.34,29.31l-4.21,4.11a.5.5,0,0,1-.69,0L26.15,29.1a.34.34,0,0,0-.48,0L24,30.58a.51.51,0,0,1-.55.08c-.28-.14-.82-.45-1.82-1.09a.29.29,0,0,0-.37,0l-.92.94a.48.48,0,0,0-.07.58c.37.66,1.16,2.16.88,2.49s-2.47,2.54-3.13,3.21a.48.48,0,0,1-.48.12,10.26,10.26,0,0,1-4.17-2.83,11.52,11.52,0,0,1-2.7-3.56.5.5,0,0,1,.1-.52L14,26.74a.46.46,0,0,1,.33-.15,3.09,3.09,0,0,1,2,.9.27.27,0,0,0,.35,0c.29-.2.84-.66,1.2-1a.49.49,0,0,0,.07-.67c-.43-.57-1.18-1.66-1.05-2.24.18-.77,7.25-7.12,7.94-7.74a.57.57,0,0,1,.13-.08c.87-.4,9.94-4.35,17.22-2,0,0,1.18.4-.16,1.55a.66.66,0,0,1-.19.09c-.7.19-4.78,1.32-5.9,2.27a45.22,45.22,0,0,0-4,4.87l0,.05-.74.77a1.05,1.05,0,0,0-.2.27h0a.47.47,0,0,0,.07.59l4.26,4.38A.48.48,0,0,1,35.34,29.31Z"/><path class="cls-2" d="M37.36,31.07,54.43,48.6a1.13,1.13,0,0,1,.24,1.52l-3.62,3.53c-.35.34-1,.21-1.51-.29L32.48,35.83c-.49-.5-.6-1.18-.25-1.52l3.61-3.53C36.19,30.44,36.87,30.57,37.36,31.07Z"/><text class="cls-3" transform="translate(64.94 54.32)">T<tspan class="cls-4" x="21.61" y="0">oolt</tspan><tspan class="cls-5" x="105.71" y="0">r</tspan><tspan class="cls-4" x="121.01" y="0">ack</tspan></text></svg>