<svg width="34" height="34" viewBox="0 0 34 34" fill="none" xmlns="http://www.w3.org/2000/svg">
<path d="M21.2509 25.5V26.5625C21.2509 27.6897 20.8032 28.7707 20.0061 29.5677C19.2091 30.3647 18.1281 30.8125 17.0009 30.8125C15.8738 30.8125 14.7928 30.3647 13.9957 29.5677C13.1987 28.7707 12.7509 27.6897 12.7509 26.5625V25.5M28.4016 23.3371C26.6963 21.25 25.4923 20.1875 25.4923 14.4334C25.4923 9.16406 22.8015 7.28676 20.5869 6.375C20.2927 6.25414 20.0158 5.97656 19.9261 5.67441C19.5377 4.35227 18.4486 3.1875 17.0009 3.1875C15.5533 3.1875 14.4636 4.35293 14.0791 5.67574C13.9894 5.98121 13.7125 6.25414 13.4183 6.375C11.201 7.28809 8.51289 9.15875 8.51289 14.4334C8.50957 20.1875 7.30563 21.25 5.60031 23.3371C4.89375 24.2018 5.51266 25.5 6.74848 25.5H27.26C28.4892 25.5 29.1041 24.1978 28.4016 23.3371Z" stroke="white" stroke-linecap="round" stroke-linejoin="round"/>
</svg>
