<svg width="39" height="40" viewBox="0 0 39 40" fill="none" xmlns="http://www.w3.org/2000/svg">
<path fill-rule="evenodd" clip-rule="evenodd" d="M19.5 3.41577C21.634 3.41576 23.747 3.83607 25.7186 4.65271C27.6901 5.46934 29.4815 6.6663 30.9905 8.17525C32.4994 9.6842 33.6964 11.4756 34.5131 13.4471C35.3297 15.4187 35.75 17.5318 35.75 19.6657C35.75 28.6404 28.4746 35.9158 19.5 35.9158C10.5254 35.9158 3.25 28.6404 3.25 19.6657C3.25 10.6912 10.5254 3.41577 19.5 3.41577ZM21.125 21.2908H17.875C13.852 21.2908 10.3981 23.7273 8.90843 27.2054C11.2655 30.5106 15.1311 32.6658 19.5 32.6658C23.8689 32.6658 27.7345 30.5106 30.0916 27.2052C28.6019 23.7273 25.148 21.2908 21.125 21.2908ZM19.5 8.29077C16.8076 8.29077 14.625 10.4734 14.625 13.1658C14.625 15.8581 16.8076 18.0408 19.5 18.0408C22.1923 18.0408 24.375 15.8581 24.375 13.1658C24.375 10.4734 22.1924 8.29077 19.5 8.29077Z" fill="#2A2F71"/>
</svg>
