<svg width="34" height="34" viewBox="0 0 34 34" fill="none" xmlns="http://www.w3.org/2000/svg">
<path d="M5.66602 25.4997C5.66602 23.9968 6.26304 22.5554 7.32574 21.4927C8.38845 20.43 9.82979 19.833 11.3327 19.833H22.666C24.1689 19.833 25.6102 20.43 26.673 21.4927C27.7357 22.5554 28.3327 23.9968 28.3327 25.4997C28.3327 26.2511 28.0342 26.9718 27.5028 27.5031C26.9715 28.0345 26.2508 28.333 25.4994 28.333H8.49935C7.7479 28.333 7.02723 28.0345 6.49588 27.5031C5.96453 26.9718 5.66602 26.2511 5.66602 25.4997Z" stroke="white" stroke-linejoin="round"/>
<path d="M17 14.1665C19.3472 14.1665 21.25 12.2637 21.25 9.9165C21.25 7.56929 19.3472 5.6665 17 5.6665C14.6528 5.6665 12.75 7.56929 12.75 9.9165C12.75 12.2637 14.6528 14.1665 17 14.1665Z" stroke="white"/>
</svg>
