<svg width="25" height="26" viewBox="0 0 25 26" fill="none" xmlns="http://www.w3.org/2000/svg">
<path d="M3.91838 8.77829C5.08463 7.87204 6.05213 8.49704 7.34338 9.99204C7.48838 10.1608 7.68338 9.96329 7.79463 9.86704C7.90588 9.77079 9.60838 8.23579 9.69213 8.16579C9.77463 8.09204 9.87463 7.95454 9.74338 7.80079C9.42717 7.40976 9.11755 7.01346 8.81463 6.61204C6.55463 3.65579 14.9971 1.65079 13.7009 1.61954C13.0409 1.60204 10.3934 1.57079 9.99713 1.61454C8.39338 1.78329 6.37963 3.28204 5.36588 3.98079C4.03963 4.88829 3.54463 5.42079 3.46338 5.49454C3.08838 5.82204 3.40338 6.57829 2.72338 7.17454C2.00463 7.80329 1.55588 7.32704 1.13963 7.69204C0.933378 7.87454 0.355878 8.30704 0.190878 8.45079C0.0246276 8.59704 -0.00537243 8.84329 0.164628 9.03954C0.164628 9.03954 1.74463 10.7845 1.87713 10.9395C2.00838 11.092 2.36588 11.2245 2.58588 11.0283C2.80713 10.8333 3.37588 10.337 3.47088 10.2495C3.56838 10.167 3.40838 9.17329 3.91838 8.77829ZM11.0534 9.42454C10.9034 9.25079 10.7171 9.24579 10.5571 9.38829L8.76463 10.9533C8.6957 11.0163 8.65372 11.1034 8.64744 11.1965C8.64115 11.2897 8.67104 11.3816 8.73088 11.4533L19.0984 23.252C19.3409 23.5308 19.7609 23.5595 20.0371 23.3183L21.2496 22.302C21.3831 22.1845 21.4648 22.0191 21.477 21.8417C21.4891 21.6642 21.4308 21.4892 21.3146 21.3545L11.0534 9.42454ZM24.8771 4.40329C24.7846 3.78579 24.4646 3.91454 24.2984 4.17579C24.1321 4.43954 23.3971 5.55329 23.0946 6.05829C22.7946 6.55829 22.0546 7.54704 20.6771 6.57079C19.2421 5.55704 19.7409 4.84954 19.9909 4.37329C20.2421 3.89454 21.0134 2.55204 21.1246 2.38579C21.2359 2.21704 21.1059 1.72704 20.6609 1.93204C20.2146 2.13704 17.5071 3.21329 17.1321 4.75704C16.7484 6.32704 17.4534 7.73079 16.0696 9.12454L14.3909 10.8745L16.0771 12.832L18.1446 10.8695C18.6371 10.3745 19.6896 9.89329 20.6421 10.1108C22.6834 10.572 23.7971 9.80579 24.4684 8.53829C25.0709 7.40579 24.9709 5.02079 24.8771 4.40329ZM3.42338 21.482C3.29895 21.6083 3.2292 21.7785 3.2292 21.9558C3.2292 22.1331 3.29895 22.3033 3.42338 22.4295L4.61213 23.592C4.87213 23.8533 5.28463 23.7433 5.54463 23.482L11.6784 17.452L9.79963 15.3095L3.42338 21.482Z" fill="black"/>
</svg>
