<svg width="25" height="26" viewBox="0 0 25 26" fill="none" xmlns="http://www.w3.org/2000/svg">
<path d="M23.4375 18.1346H22.6562V5.82011L23.6006 5.61698C23.7031 5.59776 23.8007 5.55822 23.8877 5.50068C23.9746 5.44314 24.0492 5.36877 24.107 5.28196C24.1647 5.19515 24.2045 5.09765 24.224 4.99521C24.2435 4.89277 24.2423 4.78746 24.2205 4.68549C24.1987 4.58353 24.1566 4.48696 24.0969 4.4015C24.0371 4.31603 23.9609 4.24339 23.8726 4.18786C23.7844 4.13233 23.6859 4.09503 23.583 4.07816C23.4801 4.06129 23.3748 4.06519 23.2734 4.08964L1.39844 8.77714C1.20998 8.81781 1.04322 8.92672 0.930229 9.08292C0.817235 9.23913 0.765989 9.4316 0.786348 9.62331C0.806706 9.81503 0.897232 9.99244 1.04051 10.1214C1.18379 10.2504 1.36971 10.3219 1.5625 10.3221C1.61798 10.3221 1.67331 10.3162 1.72754 10.3045L2.34375 10.1726V18.1346H1.5625C1.3553 18.1346 1.15659 18.2169 1.01007 18.3634C0.86356 18.5099 0.78125 18.7086 0.78125 18.9158C0.78125 19.123 0.86356 19.3217 1.01007 19.4682C1.15659 19.6148 1.3553 19.6971 1.5625 19.6971H23.4375C23.6447 19.6971 23.8434 19.6148 23.9899 19.4682C24.1364 19.3217 24.2188 19.123 24.2188 18.9158C24.2188 18.7086 24.1364 18.5099 23.9899 18.3634C23.8434 18.2169 23.6447 18.1346 23.4375 18.1346ZM17.9688 18.1346H7.03125V16.5721H17.9688V18.1346ZM17.9688 15.0096H7.03125V13.4471H17.9688V15.0096Z" fill="black"/>
</svg>
